<svg width="16" height="19" viewBox="0 0 16 19" fill="none" xmlns="http://www.w3.org/2000/svg">
<g id="Group">
<g id="Group_2">
<path id="Vector" fill-rule="evenodd" clip-rule="evenodd" d="M8.25 0.25C12.3896 0.25 15.75 3.51443 15.75 7.53572C15.75 9.652 14.5893 11.7996 13.1753 13.606C11.1053 16.2507 8.51735 18.1626 8.51735 18.1626C8.35985 18.2791 8.14059 18.2791 7.98309 18.1626C7.98309 18.1626 5.39471 16.2507 3.32471 13.606C1.91073 11.7996 0.75 9.652 0.75 7.53572C0.75 3.51443 4.11044 0.25 8.25 0.25ZM8.25 4.53571C6.54574 4.53571 5.16176 5.88014 5.16176 7.53572C5.16176 9.19129 6.54574 10.5357 8.25 10.5357C9.95426 10.5357 11.3382 9.19129 11.3382 7.53572C11.3382 5.88014 9.95426 4.53571 8.25 4.53571Z" fill="#3B21CC"/>
</g>
</g>
</svg>
