<svg width="24" height="24" viewBox="0 0 24 24" fill="none" xmlns="http://www.w3.org/2000/svg">
<g id="Frame" clip-path="url(#clip0_3421_7684)">
<path id="Vector" d="M11.2512 -6.10352e-05H12.7491C12.8085 0.013133 12.8679 0.0329241 12.9273 0.0395212C14.7287 0.178059 16.4246 0.679433 17.9754 1.60302C21.1692 3.50296 23.1225 6.27372 23.8088 9.93507C23.8879 10.3705 23.9341 10.8125 23.9935 11.2545V12.752C23.9605 13.0357 23.9275 13.3259 23.8879 13.6096C23.4788 16.4397 22.258 18.8674 20.1464 20.7872C17.1109 23.5513 13.5344 24.5343 9.51566 23.7295C6.57257 23.1423 4.19039 21.5854 2.3889 19.1841C0.534626 16.7036 -0.237439 13.8867 0.0595095 10.7927C0.303667 8.27262 1.2737 6.04282 2.93661 4.13628C4.81068 1.99884 7.15327 0.672836 9.95778 0.178059C10.3867 0.105491 10.8222 0.0593122 11.2512 -6.10352e-05ZM20.1332 20.1077C20.1332 20.0153 20.1464 19.9428 20.1464 19.8768C20.1464 17.9768 20.1596 16.0835 20.1398 14.1836C20.1332 13.4711 20.0738 12.7454 19.9616 12.0395C19.8231 11.1423 19.4733 10.3309 18.7276 9.74375C18.1074 9.25557 17.3815 9.07745 16.616 9.01808C15.4612 8.92572 14.4054 9.15662 13.5344 9.95486C13.2902 10.1792 13.0988 10.4562 12.8547 10.7399V9.28856H9.63444V20.1011H12.9932C12.9932 19.9889 12.9932 19.8966 12.9932 19.8042C12.9932 18.089 12.9801 16.3672 12.9998 14.6519C12.9998 14.1836 13.0724 13.702 13.1846 13.2402C13.3496 12.5871 13.7785 12.1451 14.4648 12.0197C15.679 11.7954 16.517 12.211 16.6886 13.5304C16.748 13.9922 16.7678 14.4606 16.7678 14.929C16.7744 16.5585 16.7678 18.1945 16.7678 19.824C16.7678 19.9164 16.7678 20.0021 16.7678 20.1011H20.1266L20.1332 20.1077ZM4.1376 20.1011H7.48981V9.28856H4.1376V20.1011ZM5.8203 3.87899C4.73809 3.87899 3.86704 4.73661 3.86045 5.81852C3.84725 6.88724 4.73149 7.77784 5.80051 7.78444C6.88932 7.78444 7.77356 6.91363 7.77356 5.83171C7.77356 4.7564 6.90251 3.88559 5.8203 3.87899Z" fill="#3B21CC"/>
</g>
<defs>
<clipPath id="clip0_3421_7684">
<rect width="24" height="24" fill="white"/>
</clipPath>
</defs>
</svg>
